<svg width="70" height="70" viewBox="0 0 70 70" fill="none" xmlns="http://www.w3.org/2000/svg">
<path d="M63.6364 0H6.36364C2.84773 0 0 2.84773 0 6.36364V63.6364C0 67.1523 2.84773 70 6.36364 70H38.1818V41.3636H28.6364V31.8182H38.1818V26.6923C38.1818 16.9877 42.91 12.7273 50.9759 12.7273C54.8386 12.7273 56.8814 13.0136 57.8486 13.1441V22.2727H52.3473C48.9236 22.2727 47.7273 24.08 47.7273 27.7391V31.8182H57.7627L56.4009 41.3636H47.7273V70H63.6364C67.1523 70 70 67.1523 70 63.6364V6.36364C70 2.84773 67.1491 0 63.6364 0Z" fill="#0077B7"/>
</svg>
