<svg width="70" height="70" viewBox="0 0 70 70" fill="none" xmlns="http://www.w3.org/2000/svg">
<path d="M75.0007 27L66.6673 31.5833L58.334 39.5V66.6667H70.0007C72.7623 66.6667 75.0007 64.4283 75.0007 61.6667V27Z" fill="#4CAF50"/>
<path d="M5 27L11.0233 29.85L21.6667 39.5V66.6667H10C7.23833 66.6667 5 64.4283 5 61.6667V27Z" fill="#1E88E5"/>
<path d="M58.3333 18.667L40 32.417L21.6667 18.667L20 28.3337L21.6667 39.5003L40 53.2503L58.3333 39.5003L60 28.3337L58.3333 18.667Z" fill="#E53935"/>
<path d="M5 20.4963V26.9997L21.6667 39.4997V18.6663L16.46 14.7647C15.22 13.8347 13.7133 13.333 12.1633 13.333C8.20667 13.333 5 16.5397 5 20.4963Z" fill="#C62828"/>
<path d="M75.0007 20.4963V26.9997L58.334 39.4997V18.6663L63.5407 14.7647C64.7807 13.8347 66.2873 13.333 67.8373 13.333C71.794 13.333 75.0007 16.5397 75.0007 20.4963Z" fill="#FBC02D"/>
</svg>
