<svg width="70" height="70" viewBox="0 0 70 70" fill="none" xmlns="http://www.w3.org/2000/svg">
<path d="M20.411 0C9.15555 0 0 9.16403 0 20.4224V49.589C0 60.8444 9.16403 70 20.4224 70H49.589C60.8444 70 70 60.836 70 49.5776V20.411C70 9.15555 60.836 0 49.5776 0H20.411ZM55.4167 11.6667C57.0267 11.6667 58.3333 12.9733 58.3333 14.5833C58.3333 16.1933 57.0267 17.5 55.4167 17.5C53.8067 17.5 52.5 16.1933 52.5 14.5833C52.5 12.9733 53.8067 11.6667 55.4167 11.6667ZM35 17.5C44.6512 17.5 52.5 25.3487 52.5 35C52.5 44.6512 44.6512 52.5 35 52.5C25.3487 52.5 17.5 44.6512 17.5 35C17.5 25.3487 25.3487 17.5 35 17.5ZM35 23.3333C31.9058 23.3333 28.9383 24.5625 26.7504 26.7504C24.5625 28.9383 23.3333 31.9058 23.3333 35C23.3333 38.0942 24.5625 41.0617 26.7504 43.2496C28.9383 45.4375 31.9058 46.6667 35 46.6667C38.0942 46.6667 41.0617 45.4375 43.2496 43.2496C45.4375 41.0617 46.6667 38.0942 46.6667 35C46.6667 31.9058 45.4375 28.9383 43.2496 26.7504C41.0617 24.5625 38.0942 23.3333 35 23.3333Z" fill="url(#paint0_linear_355_472)"/>
<defs>
<linearGradient id="paint0_linear_355_472" x1="35" y1="0" x2="35" y2="70" gradientUnits="userSpaceOnUse">
<stop stop-color="#7C51BE"/>
<stop offset="1" stop-color="#EA4B58"/>
</linearGradient>
</defs>
</svg>
